<?xml version="1.0" encoding="UTF-8" standalone="no"?>
<!-- Created with Inkscape (http://www.inkscape.org/) -->

<svg
   xmlns:dc="http://purl.org/dc/elements/1.1/"
   xmlns:cc="http://creativecommons.org/ns#"
   xmlns:rdf="http://www.w3.org/1999/02/22-rdf-syntax-ns#"
   xmlns:svg="http://www.w3.org/2000/svg"
   xmlns="http://www.w3.org/2000/svg"
   xmlns:sodipodi="http://sodipodi.sourceforge.net/DTD/sodipodi-0.dtd"
   xmlns:inkscape="http://www.inkscape.org/namespaces/inkscape"
   width="22"
   height="22"
   viewBox="0 0 5.8208334 5.8208332"
   version="1.1"
   id="svg1200"
   inkscape:version="0.92.4 (ca053d0, 2019-01-16)"
   sodipodi:docname="icon-save.svg">
  <defs
     id="defs1194" />
  <sodipodi:namedview
     id="base"
     pagecolor="#ffffff"
     bordercolor="#666666"
     borderopacity="1.0"
     inkscape:pageopacity="0.0"
     inkscape:pageshadow="2"
     inkscape:zoom="7.9195959"
     inkscape:cx="14.187573"
     inkscape:cy="-6.6915376"
     inkscape:document-units="mm"
     inkscape:current-layer="layer1"
     showgrid="false"
     units="px"
     inkscape:window-width="1853"
     inkscape:window-height="1025"
     inkscape:window-x="67"
     inkscape:window-y="27"
     inkscape:window-maximized="1" />
  <metadata
     id="metadata1197">
    <rdf:RDF>
      <cc:Work
         rdf:about="">
        <dc:format>image/svg+xml</dc:format>
        <dc:type
           rdf:resource="http://purl.org/dc/dcmitype/StillImage" />
        <dc:title></dc:title>
      </cc:Work>
    </rdf:RDF>
  </metadata>
  <g
     inkscape:label="Camada 1"
     inkscape:groupmode="layer"
     id="layer1"
     transform="translate(-100.71775,-141.77935)">
    <g
       id="g1179"
       transform="matrix(0.26458333,0,0,0.26458333,73.068787,98.136312)">
      <path
         sodipodi:nodetypes="ccccccsscccccsscccc"
         d="m 111.78648,168.07377 c -1.1159,0 -2.09096,0.79157 -2.3185,1.88235 l -0.0497,0.23912 -0.24222,0.0318 c -1.96056,0.25758 -3.43909,1.94542 -3.43909,3.92639 l 2.3e-4,0.0364 c 0.0162,1.68464 1.43024,3.05329 3.15226,3.05329 h 14.00638 c 1.29412,0 2.35602,-1.02528 2.36713,-2.28567 l 1e-4,-0.028 c 0,-1.53221 -1.12586,-2.88825 -2.73777,-3.29758 l -0.27444,-0.0697 0.0155,-0.2826 c 0.002,-0.0387 0.002,-0.0776 0.002,-0.11846 0,-2.11516 -1.94485,-3.83602 -4.33514,-3.83602 -1.48082,0 -2.84434,0.65886 -3.64737,1.76249 l -0.28362,0.38981 -0.2765,-0.39486 c -0.44212,-0.63168 -1.16716,-1.00878 -1.93923,-1.00878"
         style="fill:none;fill-opacity:1;fill-rule:nonzero;stroke:#1d1d1b;stroke-width:2;stroke-miterlimit:4;stroke-dasharray:none;stroke-opacity:1"
         id="path326-7-6"
         inkscape:connector-curvature="0" />
      <g
         transform="matrix(1,0,0,-1,0,356.90623)"
         id="g1173">
        <line
           style="fill:none;stroke:#1d1d1b;stroke-width:2.17904758px;stroke-linecap:round;stroke-linejoin:round"
           class="cls-1"
           x1="115.21092"
           y1="184.47"
           x2="115.21092"
           y2="173.78644"
           id="line48-22-0-0" />
        <polyline
           style="fill:none;stroke:#1d1d1b;stroke-width:2.39173961;stroke-linecap:round;stroke-linejoin:round;stroke-miterlimit:4;stroke-dasharray:none"
           class="cls-1"
           points="49.76 93.48 54 89.24 58.24 93.48"
           id="polyline50-8-9-6"
           transform="matrix(1,0,0,0.6992495,61.210922,109.76634)" />
      </g>
    </g>
  </g>
</svg>
