<?xml version="1.0" encoding="UTF-8" standalone="no"?>
<!-- Created with Inkscape (http://www.inkscape.org/) -->

<svg
   xmlns:dc="http://purl.org/dc/elements/1.1/"
   xmlns:cc="http://creativecommons.org/ns#"
   xmlns:rdf="http://www.w3.org/1999/02/22-rdf-syntax-ns#"
   xmlns:svg="http://www.w3.org/2000/svg"
   xmlns="http://www.w3.org/2000/svg"
   xmlns:sodipodi="http://sodipodi.sourceforge.net/DTD/sodipodi-0.dtd"
   xmlns:inkscape="http://www.inkscape.org/namespaces/inkscape"
   width="22"
   height="22"
   viewBox="0 0 5.8208334 5.8208332"
   version="1.1"
   id="svg1796"
   inkscape:version="0.92.4 (ca053d0, 2019-01-16)"
   sodipodi:docname="icon-load.svg">
  <defs
     id="defs1790" />
  <sodipodi:namedview
     id="base"
     pagecolor="#ffffff"
     bordercolor="#666666"
     borderopacity="1.0"
     inkscape:pageopacity="0.0"
     inkscape:pageshadow="2"
     inkscape:zoom="7.9195959"
     inkscape:cx="8.839408"
     inkscape:cy="-15.813665"
     inkscape:document-units="mm"
     inkscape:current-layer="layer1"
     showgrid="false"
     units="px"
     inkscape:window-width="1853"
     inkscape:window-height="1025"
     inkscape:window-x="67"
     inkscape:window-y="27"
     inkscape:window-maximized="1" />
  <metadata
     id="metadata1793">
    <rdf:RDF>
      <cc:Work
         rdf:about="">
        <dc:format>image/svg+xml</dc:format>
        <dc:type
           rdf:resource="http://purl.org/dc/dcmitype/StillImage" />
        <dc:title></dc:title>
      </cc:Work>
    </rdf:RDF>
  </metadata>
  <g
     inkscape:label="Camada 1"
     inkscape:groupmode="layer"
     id="layer1"
     transform="translate(-102.22965,-134.21982)">
    <g
       id="g1142"
       transform="matrix(0.26458333,0,0,0.26458333,80.739634,90.576782)">
      <path
         sodipodi:nodetypes="ccccccsscccccsscccc"
         d="m 88.508589,168.07377 c -1.115897,0 -2.09096,0.79157 -2.318505,1.88235 l -0.04972,0.23912 -0.242222,0.0318 c -1.960554,0.25758 -3.439087,1.94542 -3.439087,3.92639 l 2.28e-4,0.0364 c 0.01616,1.68464 1.430247,3.05329 3.152265,3.05329 H 99.61793 c 1.29412,0 2.35602,-1.02528 2.36713,-2.28567 l 10e-5,-0.028 c 0,-1.53221 -1.12586,-2.88825 -2.737772,-3.29758 l -0.274445,-0.0697 0.01551,-0.2826 c 0.0018,-0.0387 0.0018,-0.0776 0.0018,-0.11846 0,-2.11516 -1.944846,-3.83602 -4.335141,-3.83602 -1.48082,0 -2.844333,0.65886 -3.647368,1.76249 l -0.283617,0.38981 -0.276497,-0.39486 c -0.442124,-0.63168 -1.167161,-1.00878 -1.939235,-1.00878"
         style="fill:none;fill-opacity:1;fill-rule:nonzero;stroke:#1d1d1b;stroke-width:2;stroke-miterlimit:4;stroke-dasharray:none;stroke-opacity:1"
         id="path326-7"
         inkscape:connector-curvature="0" />
      <line
         id="line48-22-0"
         y2="173.78644"
         x2="91.933029"
         y1="184.47"
         x1="91.933029"
         class="cls-1"
         style="fill:none;stroke:#1d1d1b;stroke-width:2.17904758px;stroke-linecap:round;stroke-linejoin:round" />
      <polyline
         transform="matrix(1,0,0,0.6992495,37.933029,109.76634)"
         id="polyline50-8-9"
         points="49.76 93.48 54 89.24 58.24 93.48"
         class="cls-1"
         style="fill:none;stroke:#1d1d1b;stroke-width:2.39173961;stroke-linecap:round;stroke-linejoin:round;stroke-miterlimit:4;stroke-dasharray:none" />
    </g>
  </g>
</svg>
