<?xml version="1.0" encoding="UTF-8"?>
<!DOCTYPE svg PUBLIC "-//W3C//DTD SVG 1.1//EN" "http://www.w3.org/Graphics/SVG/1.1/DTD/svg11.dtd">
<svg version="1.2" width="156.37mm" height="124.34mm" viewBox="4178 5311 15637 12434" preserveAspectRatio="xMidYMid" fill-rule="evenodd" stroke-width="28.222" stroke-linejoin="round" xmlns="http://www.w3.org/2000/svg" xmlns:ooo="http://xml.openoffice.org/svg/export" xmlns:xlink="http://www.w3.org/1999/xlink" xmlns:presentation="http://sun.com/xmlns/staroffice/presentation" xmlns:smil="http://www.w3.org/2001/SMIL20/" xmlns:anim="urn:oasis:names:tc:opendocument:xmlns:animation:1.0" xml:space="preserve">
 <defs class="ClipPathGroup">
  <clipPath id="presentation_clip_path" clipPathUnits="userSpaceOnUse">
   <rect x="4178" y="5311" width="15637" height="12434"/>
  </clipPath>
  <clipPath id="presentation_clip_path_shrink" clipPathUnits="userSpaceOnUse">
   <rect x="4193" y="5323" width="15606" height="12410"/>
  </clipPath>
 </defs>
 <defs class="TextShapeIndex">
  <g ooo:slide="id1" ooo:id-list="id3 id4 id5 id6 id7 id8 id9 id10 id11"/>
 </defs>
 <defs class="EmbeddedBulletChars">
  <g id="bullet-char-template-57356" transform="scale(0.00048828125,-0.00048828125)">
   <path d="M 580,1141 L 1163,571 580,0 -4,571 580,1141 Z"/>
  </g>
  <g id="bullet-char-template-57354" transform="scale(0.00048828125,-0.00048828125)">
   <path d="M 8,1128 L 1137,1128 1137,0 8,0 8,1128 Z"/>
  </g>
  <g id="bullet-char-template-10146" transform="scale(0.00048828125,-0.00048828125)">
   <path d="M 174,0 L 602,739 174,1481 1456,739 174,0 Z M 1358,739 L 309,1346 659,739 1358,739 Z"/>
  </g>
  <g id="bullet-char-template-10132" transform="scale(0.00048828125,-0.00048828125)">
   <path d="M 2015,739 L 1276,0 717,0 1260,543 174,543 174,936 1260,936 717,1481 1274,1481 2015,739 Z"/>
  </g>
  <g id="bullet-char-template-10007" transform="scale(0.00048828125,-0.00048828125)">
   <path d="M 0,-2 C -7,14 -16,27 -25,37 L 356,567 C 262,823 215,952 215,954 215,979 228,992 255,992 264,992 276,990 289,987 310,991 331,999 354,1012 L 381,999 492,748 772,1049 836,1024 860,1049 C 881,1039 901,1025 922,1006 886,937 835,863 770,784 769,783 710,716 594,584 L 774,223 C 774,196 753,168 711,139 L 727,119 C 717,90 699,76 672,76 641,76 570,178 457,381 L 164,-76 C 142,-110 111,-127 72,-127 30,-127 9,-110 8,-76 1,-67 -2,-52 -2,-32 -2,-23 -1,-13 0,-2 Z"/>
  </g>
  <g id="bullet-char-template-10004" transform="scale(0.00048828125,-0.00048828125)">
   <path d="M 285,-33 C 182,-33 111,30 74,156 52,228 41,333 41,471 41,549 55,616 82,672 116,743 169,778 240,778 293,778 328,747 346,684 L 369,508 C 377,444 397,411 428,410 L 1163,1116 C 1174,1127 1196,1133 1229,1133 1271,1133 1292,1118 1292,1087 L 1292,965 C 1292,929 1282,901 1262,881 L 442,47 C 390,-6 338,-33 285,-33 Z"/>
  </g>
  <g id="bullet-char-template-9679" transform="scale(0.00048828125,-0.00048828125)">
   <path d="M 813,0 C 632,0 489,54 383,161 276,268 223,411 223,592 223,773 276,916 383,1023 489,1130 632,1184 813,1184 992,1184 1136,1130 1245,1023 1353,916 1407,772 1407,592 1407,412 1353,268 1245,161 1136,54 992,0 813,0 Z"/>
  </g>
  <g id="bullet-char-template-8226" transform="scale(0.00048828125,-0.00048828125)">
   <path d="M 346,457 C 273,457 209,483 155,535 101,586 74,649 74,723 74,796 101,859 155,911 209,963 273,989 346,989 419,989 480,963 531,910 582,859 608,796 608,723 608,648 583,586 532,535 482,483 420,457 346,457 Z"/>
  </g>
  <g id="bullet-char-template-8211" transform="scale(0.00048828125,-0.00048828125)">
   <path d="M -4,459 L 1135,459 1135,606 -4,606 -4,459 Z"/>
  </g>
  <g id="bullet-char-template-61548" transform="scale(0.00048828125,-0.00048828125)">
   <path d="M 173,740 C 173,903 231,1043 346,1159 462,1274 601,1332 765,1332 928,1332 1067,1274 1183,1159 1299,1043 1357,903 1357,740 1357,577 1299,437 1183,322 1067,206 928,148 765,148 601,148 462,206 346,322 231,437 173,577 173,740 Z"/>
  </g>
 </defs>
 <defs class="TextEmbeddedBitmaps"/>
 <g class="SlideGroup">
  <g>
   <g id="container-id1">
    <g id="id1" class="Slide" clip-path="url(#presentation_clip_path)">
     <g class="Page">
      <g class="com.sun.star.drawing.CustomShape">
       <g id="id3">
        <rect class="BoundingBox" stroke="none" fill="none" x="4177" y="5310" width="15639" height="12436"/>
        <path fill="rgb(190,227,211)" stroke="none" d="M 11996,17744 L 4178,17744 4178,5311 19814,5311 19814,17744 11996,17744 Z"/>
        <path fill="none" stroke="rgb(52,101,164)" d="M 11996,17744 L 4178,17744 4178,5311 19814,5311 19814,17744 11996,17744 Z"/>
       </g>
      </g>
      <g class="Group">
       <g class="com.sun.star.drawing.ClosedBezierShape">
        <g id="id4">
         <rect class="BoundingBox" stroke="none" fill="none" x="7490" y="10133" width="8789" height="2742"/>
         <path fill="rgb(255,255,255)" stroke="none" d="M 7491,12873 L 7491,10704 C 7491,10419 7776,10134 8061,10134 L 15706,10134 C 15991,10134 16277,10419 16277,10704 L 16277,12873 7491,12873 Z"/>
         <path fill="none" stroke="rgb(52,101,164)" d="M 7491,12873 L 7491,10704 C 7491,10419 7776,10134 8061,10134 L 15706,10134 C 15991,10134 16277,10419 16277,10704 L 16277,12873 7491,12873 Z"/>
        </g>
       </g>
       <g class="com.sun.star.drawing.ClosedBezierShape">
        <g id="id5">
         <rect class="BoundingBox" stroke="none" fill="none" x="7656" y="10288" width="8458" height="2637"/>
         <path fill="rgb(67,105,140)" stroke="none" d="M 7656,12924 L 7656,10837 C 7656,10562 7930,10288 8205,10288 L 15563,10288 C 15837,10288 16113,10562 16113,10837 L 16113,12924 7656,12924 Z"/>
        </g>
       </g>
      </g>
      <g class="Group">
       <g class="com.sun.star.drawing.CustomShape">
        <g id="id6">
         <rect class="BoundingBox" stroke="none" fill="none" x="7454" y="15507" width="369" height="1366"/>
         <path fill="rgb(255,255,255)" stroke="none" d="M 7638,16871 L 7455,16871 7455,15508 7821,15508 7821,16871 7638,16871 Z"/>
         <path fill="none" stroke="rgb(52,101,164)" d="M 7638,16871 L 7455,16871 7455,15508 7821,15508 7821,16871 7638,16871 Z"/>
        </g>
       </g>
       <g class="com.sun.star.drawing.CustomShape">
        <g id="id7">
         <rect class="BoundingBox" stroke="none" fill="none" x="15938" y="15507" width="369" height="1366"/>
         <path fill="rgb(255,255,255)" stroke="none" d="M 16122,16871 L 15939,16871 15939,15508 16305,15508 16305,16871 16122,16871 Z"/>
         <path fill="none" stroke="rgb(52,101,164)" d="M 16122,16871 L 15939,16871 15939,15508 16305,15508 16305,16871 16122,16871 Z"/>
        </g>
       </g>
      </g>
      <g class="Group">
       <g class="com.sun.star.drawing.ClosedBezierShape">
        <g id="id8">
         <rect class="BoundingBox" stroke="none" fill="none" x="6762" y="11342" width="10246" height="3196"/>
         <path fill="rgb(255,255,255)" stroke="none" d="M 6763,14536 L 6763,12008 C 6763,11675 7095,11343 7428,11343 L 16340,11343 C 16673,11343 17006,11675 17006,12008 L 17006,14536 6763,14536 Z"/>
         <path fill="none" stroke="rgb(52,101,164)" d="M 6763,14536 L 6763,12008 C 6763,11675 7095,11343 7428,11343 L 16340,11343 C 16673,11343 17006,11675 17006,12008 L 17006,14536 6763,14536 Z"/>
        </g>
       </g>
       <g class="com.sun.star.drawing.ClosedBezierShape">
        <g id="id9">
         <rect class="BoundingBox" stroke="none" fill="none" x="6954" y="11523" width="9861" height="3074"/>
         <path fill="rgb(67,105,140)" stroke="none" d="M 6955,14596 L 6955,12163 C 6955,11843 7275,11523 7595,11523 L 16173,11523 C 16493,11523 16814,11843 16814,12163 L 16814,14596 6955,14596 Z"/>
        </g>
       </g>
      </g>
      <g class="com.sun.star.drawing.PolyPolygonShape">
       <g id="id10">
        <rect class="BoundingBox" stroke="none" fill="none" x="6753" y="14543" width="10256" height="979"/>
        <path fill="rgb(255,255,255)" stroke="none" d="M 6904,15379 L 8062,15379 8062,14684 6904,14684 6904,15379 Z M 8178,15379 L 9336,15379 9336,14684 8178,14684 8178,15379 Z M 9453,15379 L 10611,15379 10611,14684 9453,14684 9453,15379 Z M 10727,15379 L 11885,15379 11885,14684 10727,14684 10727,15379 Z M 12002,15379 L 13160,15379 13160,14684 12002,14684 12002,15379 Z M 13276,15379 L 14434,15379 14434,14684 13276,14684 13276,15379 Z M 14551,15379 L 15709,15379 15709,14684 14551,14684 14551,15379 Z M 15849,15379 L 16792,15379 16792,14684 15849,14684 15849,15379 Z M 6754,15520 L 6754,14544 17007,14544 17007,15520 6754,15520 Z"/>
        <path fill="none" stroke="rgb(52,101,164)" d="M 6904,15379 L 8062,15379 8062,14684 6904,14684 6904,15379 Z"/>
        <path fill="none" stroke="rgb(52,101,164)" d="M 8178,15379 L 9336,15379 9336,14684 8178,14684 8178,15379 Z"/>
        <path fill="none" stroke="rgb(52,101,164)" d="M 9453,15379 L 10611,15379 10611,14684 9453,14684 9453,15379 Z"/>
        <path fill="none" stroke="rgb(52,101,164)" d="M 10727,15379 L 11885,15379 11885,14684 10727,14684 10727,15379 Z"/>
        <path fill="none" stroke="rgb(52,101,164)" d="M 12002,15379 L 13160,15379 13160,14684 12002,14684 12002,15379 Z"/>
        <path fill="none" stroke="rgb(52,101,164)" d="M 13276,15379 L 14434,15379 14434,14684 13276,14684 13276,15379 Z"/>
        <path fill="none" stroke="rgb(52,101,164)" d="M 14551,15379 L 15709,15379 15709,14684 14551,14684 14551,15379 Z"/>
        <path fill="none" stroke="rgb(52,101,164)" d="M 15849,15379 L 16792,15379 16792,14684 15849,14684 15849,15379 Z"/>
        <path fill="none" stroke="rgb(52,101,164)" d="M 6754,15520 L 6754,14544 17007,14544 17007,15520 6754,15520 Z"/>
       </g>
      </g>
      <g class="Graphic">
       <g id="id11">
        <rect class="BoundingBox" stroke="none" fill="none" x="10321" y="8384" width="2988" height="2994"/>
        <defs>
         <clipPath id="clip_path_1" clipPathUnits="userSpaceOnUse">
          <path d="M 10321,8384 L 13308,8384 13308,11377 10321,11377 10321,8384 Z"/>
         </clipPath>
        </defs>
        <g clip-path="url(#clip_path_1)">
         <path fill="rgb(255,212,170)" stroke="none" d="M 10590,9880 C 10590,10705 11135,11375 11808,11375 12481,11375 13027,10705 13027,9880 13027,9054 12481,8384 11808,8384 11135,8384 10590,9054 10590,9880 L 10590,9880 10590,9880 10590,9880 Z"/>
         <path fill="none" stroke="rgb(0,0,0)" d="M 10590,9880 C 10590,10705 11135,11375 11808,11375 12481,11375 13027,10705 13027,9880 13027,9054 12481,8384 11808,8384 11135,8384 10590,9054 10590,9880 L 10590,9880 10590,9880 10590,9880 Z"/>
         <path fill="rgb(0,0,0)" stroke="none" d="M 10672,9519 C 10665,9488 10651,9467 10630,9451 10609,9436 10581,9427 10549,9427 10515,9426 10464,9425 10431,9448 10398,9471 10372,9510 10354,9561 10335,9611 10319,9685 10321,9746 10323,9807 10336,9879 10368,9923 10400,9966 10474,9994 10513,10002 10550,10009 10572,9990 10592,9968 10612,9945 10624,9912 10630,9868 L 10672,9519 10672,9519 Z"/>
         <path fill="none" stroke="rgb(0,0,0)" d="M 10672,9519 C 10665,9488 10651,9467 10630,9451 10609,9436 10581,9427 10549,9427 10515,9426 10464,9425 10431,9448 10398,9471 10372,9510 10354,9561 10335,9611 10319,9685 10321,9746 10323,9807 10336,9879 10368,9923 10400,9966 10474,9994 10513,10002 10550,10009 10572,9990 10592,9968 10612,9945 10624,9912 10630,9868 L 10672,9519 10672,9519 Z"/>
         <path fill="rgb(255,212,170)" stroke="none" d="M 10635,9894 C 10631,9882 10627,9878 10621,9879 10616,9880 10609,9888 10601,9901 10592,9915 10583,9941 10570,9956 10557,9969 10547,9980 10526,9980 10505,9979 10474,9967 10448,9951 10422,9934 10390,9911 10373,9882 10354,9852 10345,9817 10341,9775 10339,9767 10340,9750 10344,9722 10348,9694 10354,9645 10365,9609 10376,9572 10390,9532 10409,9507 10427,9481 10449,9465 10475,9457 10499,9448 10535,9451 10558,9453 10580,9454 10597,9458 10611,9465 10624,9471 10634,9481 10641,9492 10647,9502 10645,9521 10650,9528 10654,9534 10659,9536 10666,9532 10673,9528 10679,9520 10687,9505 10670,9635 10652,9764 10635,9894 L 10635,9894 Z"/>
         <path fill="rgb(0,0,0)" stroke="none" d="M 10605,9593 C 10601,9583 10585,9567 10570,9560 10554,9551 10531,9542 10511,9547 10490,9552 10466,9564 10449,9591 10433,9618 10418,9665 10415,9706 10411,9746 10415,9802 10430,9829 10444,9855 10478,9862 10502,9861 10525,9859 10559,9833 10568,9822 10577,9810 10569,9792 10558,9793 10546,9794 10519,9825 10502,9829 10484,9833 10468,9829 10457,9816 10446,9802 10440,9779 10440,9751 10440,9722 10445,9672 10455,9644 10465,9616 10482,9594 10498,9584 10512,9573 10530,9575 10546,9581 10561,9586 10578,9611 10588,9614 10597,9615 10607,9602 10605,9593 L 10605,9593 Z"/>
         <path fill="none" stroke="rgb(0,0,0)" d="M 10605,9593 C 10601,9583 10585,9567 10570,9560 10554,9551 10531,9542 10511,9547 10490,9552 10466,9564 10449,9591 10433,9618 10418,9665 10415,9706 10411,9746 10415,9802 10430,9829 10444,9855 10478,9862 10502,9861 10525,9859 10559,9833 10568,9822 10577,9810 10569,9792 10558,9793 10546,9794 10519,9825 10502,9829 10484,9833 10468,9829 10457,9816 10446,9802 10440,9779 10440,9751 10440,9722 10445,9672 10455,9644 10465,9616 10482,9594 10498,9584 10512,9573 10530,9575 10546,9581 10561,9586 10578,9611 10588,9614 10597,9615 10607,9602 10605,9593 L 10605,9593 Z"/>
         <path fill="rgb(0,0,0)" stroke="none" d="M 12956,9532 C 12963,9502 12977,9479 12998,9464 13019,9448 13046,9441 13079,9440 13113,9439 13164,9438 13197,9461 13229,9484 13255,9523 13274,9574 13292,9624 13308,9698 13307,9759 13304,9820 13292,9892 13260,9936 13228,9979 13153,10007 13116,10015 13078,10022 13055,10003 13036,9981 13016,9958 13004,9925 12998,9881 L 12956,9532 12956,9532 Z"/>
         <path fill="none" stroke="rgb(0,0,0)" d="M 12956,9532 C 12963,9502 12977,9479 12998,9464 13019,9448 13046,9441 13079,9440 13113,9439 13164,9438 13197,9461 13229,9484 13255,9523 13274,9574 13292,9624 13308,9698 13307,9759 13304,9820 13292,9892 13260,9936 13228,9979 13153,10007 13116,10015 13078,10022 13055,10003 13036,9981 13016,9958 13004,9925 12998,9881 L 12956,9532 12956,9532 Z"/>
         <path fill="rgb(255,212,170)" stroke="none" d="M 12994,9907 C 12997,9896 13001,9891 13007,9892 13012,9893 13018,9901 13027,9914 13035,9928 13045,9955 13058,9969 13071,9982 13081,9993 13102,9993 13123,9992 13154,9980 13180,9964 13206,9947 13238,9924 13256,9895 13274,9865 13283,9830 13287,9788 13289,9780 13288,9763 13284,9735 13280,9707 13274,9658 13263,9622 13252,9585 13238,9545 13219,9520 13200,9495 13178,9478 13153,9470 13128,9461 13093,9464 13070,9466 13047,9467 13031,9471 13017,9478 13003,9485 12994,9494 12987,9505 12980,9515 12983,9534 12978,9541 12974,9548 12968,9549 12962,9545 12955,9541 12948,9533 12941,9518 12958,9648 12976,9777 12994,9907 L 12994,9907 Z"/>
         <path fill="rgb(0,0,0)" stroke="none" d="M 13024,9606 C 13026,9596 13043,9580 13058,9573 13074,9564 13097,9555 13117,9561 13137,9565 13162,9577 13179,9604 13194,9631 13210,9678 13213,9719 13216,9759 13213,9815 13198,9842 13183,9868 13149,9875 13126,9874 13103,9872 13069,9846 13060,9835 13051,9823 13058,9805 13070,9806 13081,9807 13109,9838 13126,9842 13143,9846 13160,9841 13171,9829 13182,9815 13187,9793 13188,9764 13187,9735 13182,9685 13173,9657 13163,9628 13145,9607 13131,9597 13115,9585 13097,9589 13082,9594 13067,9599 13050,9624 13040,9627 13030,9628 13020,9615 13024,9606 L 13024,9606 Z"/>
         <path fill="none" stroke="rgb(0,0,0)" d="M 13024,9606 C 13026,9596 13043,9580 13058,9573 13074,9564 13097,9555 13117,9561 13137,9565 13162,9577 13179,9604 13194,9631 13210,9678 13213,9719 13216,9759 13213,9815 13198,9842 13183,9868 13149,9875 13126,9874 13103,9872 13069,9846 13060,9835 13051,9823 13058,9805 13070,9806 13081,9807 13109,9838 13126,9842 13143,9846 13160,9841 13171,9829 13182,9815 13187,9793 13188,9764 13187,9735 13182,9685 13173,9657 13163,9628 13145,9607 13131,9597 13115,9585 13097,9589 13082,9594 13067,9599 13050,9624 13040,9627 13030,9628 13020,9615 13024,9606 L 13024,9606 Z"/>
         <path fill="rgb(0,0,0)" stroke="none" d="M 11380,9809 C 11304,9838 11202,9890 11136,9945 11072,9998 11005,10066 10996,10128 10987,10189 11022,10265 11085,10310 11148,10355 11271,10402 11371,10395 11470,10386 11599,10309 11676,10264 11751,10217 11800,10163 11821,10123 11841,10083 11797,10056 11798,10024 11799,9993 11838,9970 11831,9935 11822,9900 11792,9840 11751,9813 11709,9786 11649,9772 11587,9771 11524,9769 11455,9780 11380,9809 L 11380,9809 Z"/>
         <path fill="rgb(73,50,42)" stroke="none" d="M 11404,9832 C 11334,9860 11222,9916 11160,9968 11097,10020 11035,10085 11033,10142 11032,10197 11090,10265 11150,10301 11212,10337 11308,10363 11394,10353 11480,10341 11595,10273 11662,10236 11727,10198 11767,10162 11784,10128 11800,10093 11758,10061 11760,10029 11762,9998 11803,9974 11793,9940 11782,9905 11731,9846 11695,9823 11657,9799 11621,9797 11573,9799 11523,9801 11473,9803 11404,9832 L 11404,9832 Z"/>
         <path fill="rgb(0,0,0)" stroke="none" d="M 12211,9823 C 12287,9852 12389,9905 12455,9959 12519,10012 12586,10080 12596,10142 12604,10203 12569,10279 12506,10325 12442,10370 12320,10416 12220,10409 12120,10400 11991,10324 11915,10278 11840,10231 11790,10177 11770,10137 11750,10097 11794,10070 11793,10038 11791,10007 11753,9984 11760,9949 11768,9914 11799,9854 11840,9827 11882,9800 11941,9786 12005,9785 12066,9784 12135,9794 12211,9823 L 12211,9823 Z"/>
         <path fill="rgb(73,50,42)" stroke="none" d="M 12187,9846 C 12256,9875 12368,9930 12431,9982 12493,10034 12556,10100 12558,10156 12559,10212 12501,10279 12441,10315 12379,10351 12283,10377 12197,10367 12110,10355 11995,10287 11930,10250 11864,10212 11824,10176 11807,10142 11791,10107 11832,10074 11831,10043 11828,10011 11788,9988 11798,9954 11809,9919 11859,9861 11897,9837 11933,9813 11970,9811 12019,9813 12067,9814 12118,9818 12187,9846 L 12187,9846 Z"/>
         <path fill="rgb(0,0,0)" stroke="none" d="M 11105,9293 C 11105,9487 11264,9643 11460,9643 11656,9643 11815,9487 11815,9293 11815,9099 11656,8942 11460,8942 11264,8942 11105,9099 11105,9293 L 11105,9293 Z"/>
         <path fill="none" stroke="rgb(0,0,0)" d="M 11105,9293 C 11105,9487 11264,9643 11460,9643 11656,9643 11815,9487 11815,9293 11815,9099 11656,8942 11460,8942 11264,8942 11105,9099 11105,9293 L 11105,9293 Z"/>
         <path fill="rgb(240,240,240)" stroke="none" d="M 11130,9293 C 11130,9473 11278,9619 11460,9619 11643,9619 11790,9473 11790,9293 11790,9113 11643,8967 11460,8967 11278,8967 11130,9113 11130,9293 L 11130,9293 Z"/>
         <path fill="none" stroke="rgb(0,0,0)" d="M 11130,9293 C 11130,9473 11278,9619 11460,9619 11643,9619 11790,9473 11790,9293 11790,9113 11643,8967 11460,8967 11278,8967 11130,9113 11130,9293 L 11130,9293 Z"/>
         <path fill="rgb(0,0,0)" stroke="none" d="M 11797,9293 C 11797,9487 11955,9643 12152,9643 12347,9643 12506,9487 12506,9293 12506,9099 12347,8942 12152,8942 11955,8942 11797,9099 11797,9293 L 11797,9293 Z"/>
         <path fill="none" stroke="rgb(0,0,0)" d="M 11797,9293 C 11797,9487 11955,9643 12152,9643 12347,9643 12506,9487 12506,9293 12506,9099 12347,8942 12152,8942 11955,8942 11797,9099 11797,9293 L 11797,9293 Z"/>
         <path fill="rgb(240,240,240)" stroke="none" d="M 11821,9293 C 11821,9473 11969,9619 12152,9619 12334,9619 12482,9473 12482,9293 12482,9113 12334,8967 12152,8967 11969,8967 11821,9113 11821,9293 L 11821,9293 Z"/>
         <path fill="none" stroke="rgb(0,0,0)" d="M 11821,9293 C 11821,9473 11969,9619 12152,9619 12334,9619 12482,9473 12482,9293 12482,9113 12334,8967 12152,8967 11969,8967 11821,9113 11821,9293 L 11821,9293 Z"/>
         <path fill="rgb(0,0,0)" stroke="none" d="M 11122,9206 C 11037,9196 10960,9187 10889,9180 10818,9172 10754,9166 10698,9161 L 10649,9224 C 10770,9234 10866,9243 10945,9250 11023,9258 11078,9265 11115,9271 11117,9249 11120,9228 11122,9206 L 11122,9206 Z"/>
         <path fill="none" stroke="rgb(0,0,0)" d="M 11122,9206 C 11037,9196 10960,9187 10889,9180 10818,9172 10754,9166 10698,9161 L 10649,9224 C 10770,9234 10866,9243 10945,9250 11023,9258 11078,9265 11115,9271 11117,9249 11120,9228 11122,9206 L 11122,9206 Z"/>
         <path fill="rgb(0,0,0)" stroke="none" d="M 12490,9206 C 12573,9196 12649,9187 12719,9180 12789,9172 12851,9166 12908,9161 L 12956,9224 C 12837,9234 12742,9243 12664,9250 12588,9258 12531,9265 12496,9271 12494,9249 12492,9228 12490,9206 L 12490,9206 Z"/>
         <path fill="none" stroke="rgb(0,0,0)" d="M 12490,9206 C 12573,9196 12649,9187 12719,9180 12789,9172 12851,9166 12908,9161 L 12956,9224 C 12837,9234 12742,9243 12664,9250 12588,9258 12531,9265 12496,9271 12494,9249 12492,9228 12490,9206 L 12490,9206 Z"/>
         <path fill="rgb(0,0,0)" stroke="none" d="M 12151,9360 C 12151,9401 12113,9434 12067,9434 12021,9434 11984,9401 11984,9360 11984,9319 12021,9286 12067,9286 12113,9286 12151,9319 12151,9360 L 12151,9360 Z"/>
         <path fill="none" stroke="rgb(0,0,0)" d="M 12151,9360 C 12151,9401 12113,9434 12067,9434 12021,9434 11984,9401 11984,9360 11984,9319 12021,9286 12067,9286 12113,9286 12151,9319 12151,9360 L 12151,9360 Z"/>
         <path fill="rgb(255,255,255)" stroke="none" d="M 12084,9346 C 12084,9359 12074,9369 12062,9369 12049,9369 12039,9359 12039,9346 12039,9334 12049,9324 12062,9324 12074,9324 12084,9334 12084,9346 L 12084,9346 Z"/>
         <path fill="none" stroke="rgb(0,0,0)" d="M 12084,9346 C 12084,9359 12074,9369 12062,9369 12049,9369 12039,9359 12039,9346 12039,9334 12049,9324 12062,9324 12074,9324 12084,9334 12084,9346 L 12084,9346 Z"/>
         <path fill="rgb(0,0,0)" stroke="none" d="M 11516,9373 C 11516,9414 11553,9448 11599,9448 11646,9448 11683,9414 11683,9373 11683,9331 11646,9298 11599,9298 11553,9298 11516,9331 11516,9373 L 11516,9373 Z"/>
         <path fill="none" stroke="rgb(0,0,0)" d="M 11516,9373 C 11516,9414 11553,9448 11599,9448 11646,9448 11683,9414 11683,9373 11683,9331 11646,9298 11599,9298 11553,9298 11516,9331 11516,9373 L 11516,9373 Z"/>
         <path fill="rgb(255,255,255)" stroke="none" d="M 11558,9359 C 11558,9372 11568,9382 11581,9382 11593,9382 11604,9372 11604,9359 11604,9347 11593,9336 11581,9336 11568,9336 11558,9347 11558,9359 L 11558,9359 Z"/>
         <path fill="none" stroke="rgb(0,0,0)" d="M 11558,9359 C 11558,9372 11568,9382 11581,9382 11593,9382 11604,9372 11604,9359 11604,9347 11593,9336 11581,9336 11568,9336 11558,9347 11558,9359 L 11558,9359 Z"/>
         <path fill="rgb(0,0,0)" stroke="none" d="M 12241,9215 C 12223,9200 12188,9178 12160,9164 12132,9151 12097,9139 12075,9136 12053,9132 12031,9136 12028,9143 12025,9150 12037,9166 12056,9175 12074,9183 12110,9181 12137,9191 12163,9201 12190,9222 12209,9235 12227,9247 12238,9263 12247,9265 12255,9267 12262,9257 12261,9249 12260,9240 12257,9229 12241,9215 L 12241,9215 Z"/>
         <path fill="none" stroke="rgb(0,0,0)" d="M 12241,9215 C 12223,9200 12188,9178 12160,9164 12132,9151 12097,9139 12075,9136 12053,9132 12031,9136 12028,9143 12025,9150 12037,9166 12056,9175 12074,9183 12110,9181 12137,9191 12163,9201 12190,9222 12209,9235 12227,9247 12238,9263 12247,9265 12255,9267 12262,9257 12261,9249 12260,9240 12257,9229 12241,9215 L 12241,9215 Z"/>
         <path fill="rgb(0,0,0)" stroke="none" d="M 11384,9252 C 11396,9234 11423,9205 11447,9187 11469,9168 11499,9149 11519,9142 11539,9133 11560,9132 11565,9138 11570,9144 11563,9163 11548,9175 11533,9187 11497,9192 11475,9207 11453,9222 11433,9248 11419,9264 11404,9280 11399,9296 11391,9302 11383,9305 11375,9297 11373,9289 11371,9280 11372,9268 11384,9252 L 11384,9252 Z"/>
         <path fill="none" stroke="rgb(0,0,0)" d="M 11384,9252 C 11396,9234 11423,9205 11447,9187 11469,9168 11499,9149 11519,9142 11539,9133 11560,9132 11565,9138 11570,9144 11563,9163 11548,9175 11533,9187 11497,9192 11475,9207 11453,9222 11433,9248 11419,9264 11404,9280 11399,9296 11391,9302 11383,9305 11375,9297 11373,9289 11371,9280 11372,9268 11384,9252 L 11384,9252 Z"/>
        </g>
       </g>
      </g>
     </g>
    </g>
   </g>
  </g>
 </g>
</svg>